# xmcd
#
# Track frame offsets: 
#        150
#        19249
#        36177
#        56103
#        74526
#        103363
#        130651
#        150688
#        173457
#        194996
#
# Disc length: 2855 seconds
#
# Revision: 0
# Processed by: cddbd v1.5.2PL0 Copyright (c) Steve Scherf et al.
# Submitted via: ExactAudioCopy v0.95b3
#
DISCID=920b250a
DTITLE=Rod Argent  - Moving Home  FLAC
DYEAR=1900
DGENRE=
TTITLE0=Home
TTITLE1=Silence
TTITLE2=I'm in the mood
TTITLE3=Summer
TTITLE4=No.1
TTITLE5=Tenderness
TTITLE6=Pastorius mentioned
TTITLE7=Well. well. well
TTITLE8=Smiling
TTITLE9=Recollection
EXTD=
EXTT0=
EXTT1=
EXTT2=
EXTT3=
EXTT4=
EXTT5=
EXTT6=
EXTT7=
EXTT8=
EXTT9=
PLAYORDER=
